<svg id="Слой_1" data-name="Слой 1" xmlns="http://www.w3.org/2000/svg" viewBox="0 0 50 68.51"><defs><style>.cls-1{fill:#1d1d1e;}.cls-2{fill:#1d1d1f;}.cls-3{fill:#fcfcfc;}.cls-4{fill:#fdfdfd;}</style></defs><path class="cls-1" d="M306,364.79q9.38,0,18.75,0c2.77,0,3.62.89,3.47,3.65q-1.26,24.22-2.55,48.45c-.13,2.42-1.1,3.37-3.51,3.37q-16.14,0-32.29,0c-2.43,0-3.39-.93-3.52-3.35q-1.29-24.23-2.55-48.46c-.15-2.77.69-3.65,3.45-3.66Q296.61,364.78,306,364.79Z" transform="translate(-280.98 -351.76)"/><path class="cls-2" d="M306,362.18H284.3c-2.56,0-3.3-.6-3.32-2.63s.71-2.71,3.22-2.71c4.58,0,9.17,0,13.76,0,1.06,0,1.66-.11,2-1.36.69-2.34,3.08-3.7,5.91-3.73s5.39,1.32,6.11,3.75c.38,1.25,1,1.35,2,1.34,4.45,0,8.9,0,13.35,0,2.94,0,3.62.52,3.6,2.73s-.72,2.62-3.52,2.62Z" transform="translate(-280.98 -351.76)"/><path class="cls-3" d="M308.44,393.27v19.15a14,14,0,0,1,0,1.45,2.44,2.44,0,1,1-4.88,0c0-.48,0-1,0-1.45V373.12c0-1.67.59-2.94,2.43-2.95s2.47,1.23,2.47,2.91c0,4.72,0,9.44,0,14.16Z" transform="translate(-280.98 -351.76)"/><path class="cls-4" d="M297.65,409.88c.05,1.11.07,2.22.17,3.32.15,1.71-.45,3-2.23,3.12s-2.51-1.08-2.6-2.8c-.38-7.63-.81-15.25-1.21-22.88q-.46-8.62-.88-17.26c-.1-2.11.72-3.26,2.3-3.23,1.87,0,2.41,1.27,2.49,2.92q1,18.4,2,36.8Z" transform="translate(-280.98 -351.76)"/><path class="cls-4" d="M320.09,393.24c-.37,6.79-.76,13.58-1.11,20.37-.08,1.65-.82,2.66-2.48,2.74-1.46.07-2.43-1.23-2.33-3q1.05-20.07,2.11-40.13c.08-1.53.46-2.78,2.18-3s2.73,1,2.63,3.13C320.78,379.93,320.43,386.59,320.09,393.24Z" transform="translate(-280.98 -351.76)"/></svg>