<svg id="Слой_1" data-name="Слой 1" xmlns="http://www.w3.org/2000/svg" viewBox="0 0 100 85.02"><defs><style>.cls-1{fill:#fefefe;}.cls-2{fill:#cbcbcb;}</style></defs><path class="cls-1" d="M185.78,50.39s.14-.07.13.06V51q0,41.91,0,83.83c0,.49-.11.6-.59.6q-49.41,0-98.81,0c-.49,0-.6-.11-.6-.6q0-42.08,0-84.15c.23-.06.27.19.43.26a9.55,9.55,0,0,1,1.21,2c1,1.79,2.09,3.58,3.14,5.36l3.67,6.17c1.24,2.08,2.44,4.17,3.67,6.26,1.38,2.32,2.75,4.65,4.12,7,1,1.72,2,3.46,3,5.19.68,1.17,1.36,2.35,2.07,3.51s1.5,2.62,2.29,3.9c1.28,2.08,2.41,4.23,3.74,6.28.47.74.89,1.53,1.32,2.3.76,1.33,1.59,2.62,2.35,4,1.11,1.94,2.3,3.84,3.41,5.79.93,1.63,1.88,3.24,2.85,4.85,1.11,1.82,2.13,3.7,3.25,5.52.75,1.21,1.45,2.45,2.16,3.68.91,1.57,1.79,3.15,2.78,4.67.48.75.87,1.54,1.32,2.3l2.33,3.87a6,6,0,0,0,.78,1.32c.76-1.1,1.38-2.26,2-3.4,1-1.68,2-3.33,3-5,.69-1.2,1.42-2.37,2.1-3.57s1.63-2.65,2.35-4,1.47-2.38,2.13-3.62,1.44-2.35,2.12-3.55,1.42-2.41,2.13-3.62,1.56-2.64,2.32-4c.65-1.14,1.38-2.24,2-3.39.82-1.49,1.75-2.92,2.59-4.4,1-1.8,2.14-3.55,3.16-5.34.67-1.16,1.37-2.3,2-3.46.95-1.69,2-3.33,2.95-5,.73-1.32,1.53-2.6,2.3-3.9s1.36-2.35,2.07-3.51,1.45-2.45,2.17-3.67c1.42-2.38,2.79-4.78,4.2-7.15q1.44-2.41,2.86-4.85c.68-1.15,1.41-2.28,2-3.44s1.49-2.43,2.14-3.7a4.57,4.57,0,0,1,.72-1.07C185.49,50.92,185.53,50.58,185.78,50.39Z" transform="translate(-85.92 -50.38)"/><path class="cls-2" d="M86.22,51c-.22,0-.14-.3-.28-.38,0-.08-.13-.28.13-.26h99.71c-.07.28-.05.61-.37.78a.93.93,0,0,0-.94-.44c-.12,0-.26,0-.39,0H87.63C87.14,50.73,86.62,50.61,86.22,51Z" transform="translate(-85.92 -50.38)"/><path d="M86.22,51c-.1-.31-.07-.51.33-.47a3.38,3.38,0,0,0,.45,0H185c.52-.07.72.09.46.61-.92,1.31-1.67,2.71-2.46,4.1-.57,1-1.2,2-1.78,3q-1.41,2.4-2.8,4.8c-.83,1.43-1.7,2.85-2.52,4.29-.7,1.22-1.47,2.4-2.18,3.61-.46.78-.88,1.6-1.37,2.36-.69,1.06-1.26,2.18-2,3.24-.53.82-1,1.71-1.48,2.59-.86,1.57-1.81,3.09-2.7,4.65s-1.69,2.91-2.56,4.34-1.72,2.95-2.6,4.41-1.72,2.91-2.57,4.37-1.73,2.91-2.58,4.37l-2.59,4.37c-.84,1.44-1.7,2.87-2.53,4.31s-1.73,3-2.61,4.43-1.73,2.8-2.52,4.26c-.67,1.23-1.52,2.37-2.18,3.62-.41.77-.86,1.52-1.31,2.26s-.8,1.42-1.27,2.1-.76,1.31-1.16,2c-.81,1.32-1.54,2.69-2.34,4-.44.73-.9,1.45-1.29,2.21-.05.09,0,.22-.18.22s-.16-.09-.2-.2a23.33,23.33,0,0,0-1.52-2.72q-1.31-2.23-2.63-4.47c-.83-1.42-1.7-2.82-2.5-4.26-.62-1.12-1.44-2.14-2-3.28s-1.39-2.22-2-3.38c-.45-.89-1-1.72-1.52-2.57-.33-.53-.66-1.08-.94-1.63-.67-1.31-1.5-2.52-2.2-3.8-.8-1.49-1.71-2.92-2.56-4.39s-1.73-2.9-2.59-4.36-1.67-2.93-2.57-4.36-1.71-3-2.59-4.41c-1-1.73-2.09-3.45-3.12-5.19-.77-1.31-1.43-2.69-2.26-4-.71-1.06-1.37-2.16-2-3.27-.71-1.3-1.57-2.51-2.22-3.84S99,72.49,98.22,71.24c-1-1.7-2-3.42-3-5.12-.62-1.06-1.31-2.07-1.9-3.13s-1.11-2-1.68-2.92c-.7-1.15-1.41-2.3-2.08-3.48-1-1.75-2.14-3.41-3-5.22A.58.58,0,0,0,86.22,51Z" transform="translate(-85.92 -50.38)"/></svg>