<?xml version="1.0" encoding="utf-8"?>
<!-- Generator: Adobe Illustrator 24.1.2, SVG Export Plug-In . SVG Version: 6.00 Build 0)  -->
<svg version="1.1" id="Слой_1" xmlns="http://www.w3.org/2000/svg" xmlns:xlink="http://www.w3.org/1999/xlink" x="0px" y="0px"
	 viewBox="0 0 152.3 172.9" style="enable-background:new 0 0 152.3 172.9;" xml:space="preserve">
<style type="text/css">
	.st0{fill:#2A2A2A;}
	.st1{fill:#2A2A29;}
	.st2{fill:#2B2B2A;}
	.st3{fill:#323232;}
	.st4{fill:#FEA64D;}
	.st5{fill:#FEFEFE;}
	.st6{fill:#FEE065;}
	.st7{fill:#FC7756;}
	.st8{fill:#9ACC86;}
	.st9{fill:#FA7756;}
	.st10{fill:#99CC85;}
	.st11{fill:#2B2928;}
	.st12{fill:#2D2C28;}
	.st13{fill:#2B2C2D;}
	.st14{fill:#282828;}
	.st15{fill:#2F2927;}
	.st16{fill:#2F2825;}
	.st17{fill:#F5A851;}
	.st18{fill:#342C22;}
	.st19{fill:#F9A74C;}
	.st20{fill:#F8A84F;}
	.st21{fill:#7D7D7D;}
	.st22{fill:#747474;}
</style>
<path class="st0" d="M121.5,134.4c6.2,5.4,9.1,12.4,9.8,20.5c1.8-0.9,3.3-1.8,5-2.5c3.8-1.5,7.7-2.2,11.7-1.1
	c1.2,0.3,2.4,0.9,3.4,1.6c0.7,0.4,0.9,1.2,0.6,1.9c-0.1,0.2-0.2,0.4-0.4,0.5c-4.1,3.9-8.1,7.8-12.2,11.7c-0.4,0.4-1,0.6-1.5,0.5
	c-4.4,0.1-8.2-3.1-8.9-7.5c-0.5-2.6-0.3-5.2-0.7-7.8c-1-6.6-4.4-12.7-9.7-16.8c-3.7-2.9-7.9-5-12.5-6.1c-1.6-0.4-3.2-0.3-4.8,0.1
	c-4.4,0.7-8.8,1.6-13.2,2.3c-0.8,0.1-0.9,0.4-0.8,1.2c0.4,4.6,0.1,9.1-2,13.3c-2.4,4.7-6.5,7.1-11.6,7.9s-10.2-0.1-15.3-1.5
	c0.7,2,1.2,4,1.6,6.1c0.7,4.4,0.4,8.6-2.2,12.4c-0.2,0.3-0.5,0.6-0.8,0.9c-1.1,1.2-2,1.1-2.9-0.2c-3-4.5-6-9-9-13.4
	c-0.4-0.6-0.6-1.4-0.4-2.1c0.7-4,4.1-7,8.1-7.2c1.7-0.2,3.4,0,5.1,0.5c4.2,1.4,8.6,2.1,13,2c4.2-0.1,8.1-1.3,10.8-4.8
	c2.3-2.9,2.9-6.3,3.1-9.8c0-1.3,0-2.6-0.1-3.8c0-0.8-0.4-0.9-1-0.8l-23.6,4.2c-3.2,0.7-6.5,0.2-9.3-1.6c-1-1.8-2.5-3.3-4.3-4.3
	c-0.9-1.3-1.4-2.8-1.7-4.3C42,110,39.1,93.5,36.3,77.1c-0.1-0.3-0.1-0.6-0.1-1s-0.2-0.8,0-1c0.7-0.7,0-0.9-0.4-1.2
	c-1-5.5-1.9-10.9-2.9-16.4c-0.3-1.6,0-2,1.7-2.3c1.3-0.2,2.8-0.2,3.8-0.8s0.9-2.3,1.3-3.5c2.1-6.1,6.4-11.2,11.9-14.3
	c0.6-0.2,1-0.9,0.8-1.6c-1.3-7.3-2.6-14.7-3.9-22c-0.9-6.2,3.4-12,9.6-12.9c4-0.6,8,1,10.5,4.2c1.4,2,2.3,4.4,2.5,6.8
	c1.3,7.8,2.8,15.5,4.1,23.2c0.2,1.2,1.1,1.2,1.8,1.7c0.9,0.6,1.5,0.4,2.3-0.3c9-7.6,22-8.4,31.7-1.8c4.7,3,8.2,7.4,10.2,12.6
	c0.1,0.4,0.3,0.7,0.5,1.2l5.1-7.7c0.2-0.3,0.4-0.5,0.5-0.8c0.3-0.5,0.9-0.7,1.5-0.6c0.5,0.1,0.9,0.6,1,1.2c0.5,3,1.1,6.1,1.6,9.1
	c2.2,12.8,4.4,25.6,6.6,38.4c1.3,7.5,2.6,14.9,3.9,22.4c1.1,6.7-3.3,13-10,14.4c-1,0.2-2,0.3-3.1,0.5c-0.4-0.3-0.1-1.2-0.8-1.2
	c-0.7,0-1,0.8-1.2,1.3c0,0.1-0.1,0.2-0.2,0.3l-16.1,2.9c2.8,1.1,5.5,2.5,7.9,4.2c0.1,0.6-0.6,0.3-0.7,0.6
	C118.6,133.9,119.7,135,121.5,134.4z"/>
<path class="st1" d="M23.7,53.3C13.6,53.2,4.9,46,3.1,36C2.9,34.5,2.8,33,3,31.6c0-0.6,0.4-1.1,0.9-1.2c3.6-1.3,7.4-1.4,11.1-0.3
	c8.4,2.6,13.8,8,15.5,16.8c0.1,0.5,0.2,1.1,0.2,1.7C30.5,52.6,31,52,27,53C25.9,53.3,24.8,53.4,23.7,53.3z"/>
<path class="st2" d="M42.1,33.2c-0.1,4.2-1.4,7.9-4.8,10.7c-0.4,0.4-1.1,0.5-1.6,0.2c-5-2.6-7.3-6.9-7.6-12.3
	c-0.4-4.2,1.2-8.4,4.4-11.2c0.6-0.7,1.6-0.8,2.3-0.3c4,2.2,6.2,5.8,7,10.2C42,31.4,42.1,32.3,42.1,33.2z"/>
<path class="st0" d="M46.4,130.8c1.6,0.2,4.2,2.8,4.3,4.3C48.9,134.2,47.4,132.6,46.4,130.8z"/>
<path class="st0" d="M121.5,134.4c-0.8,0.7-2,0.7-2.7-0.1c-0.1-0.1-0.1-0.1-0.1-0.2l-0.5-0.5c-1.1-1.3-1.1-1.3,0.2-1.6
	c0.4,0.1,0.7,0.4,1,0.7c-0.1,1,0,1.1,1.2,1C121,133.8,121.3,134.1,121.5,134.4z"/>
<path class="st0" d="M126.5,125c0-0.1,0-0.2,0-0.4c0.1-0.9,0.6-1.7,1.5-1.6c0.9,0,0.5,1,0.7,1.6C128,124.8,127.3,124.9,126.5,125z"
	/>
<path class="st3" d="M120.6,133.6c-0.1,0.5-0.4,0.6-0.8,0.5c-0.5-0.1-0.9-0.5-1.1-1c0-0.3,0.3-0.4,0.6-0.4L120.6,133.6z"/>
<path class="st0" d="M35.6,73.9L35.6,73.9c0.6,0.4,1-0.8,1.4,0c0.2,0.5-0.4,0.8-0.7,1.1s-0.1,0.8-0.3,1.1
	C35.9,75.4,35.8,74.6,35.6,73.9z"/>
<path class="st4" d="M77,122.1l-4.7-26.5c-1.1-6.5-2.3-13-3.4-19.5c-1.2-7.1-2.5-14.2-3.7-21.3c0-0.1,0-0.1,0.1-0.3
	c3.1,2.3,6.2,4.6,9.3,7c1.6,1.2,2,1.1,3.2-0.5c2.4-3.5,4.8-7,7.2-10.5c0.5-0.8,0.9-0.9,1.6-0.3c3.2,2.5,6.4,4.8,9.7,7.3
	c1.7,1.3,2.2,1.3,3.4-0.6c2.3-3.4,4.5-6.8,6.7-10.2c0.5-0.8,0.9-0.8,1.6-0.3c3.4,2.5,6.9,4.9,10.3,7.4c1.6,1.2,2,1.1,3.1-0.6
	c2-3.1,4-6.1,6.2-9.4c0.4,2.2,0.7,4.1,1.1,6.1c1.8,10.4,3.6,20.9,5.4,31.3l5.1,29.5c0,0.2,0,0.5,0,0.7c-1.5,0.8-3.2,0.7-4.8,1
	c-5.4,1-10.8,1.9-16.2,2.9c-5.9,1-11.8,2.1-17.7,3.1s-11.6,2-17.3,3.1c-1.7,0.3-3.4,0.6-5.2,0.9C77.7,122.4,77.3,122.4,77,122.1z"/>
<path class="st5" d="M37.3,67.9c-0.5-3.1-1-6.2-1.6-9.3c-0.1-0.7,0-0.9,0.7-1c2.7-0.4,5.3-0.9,8-1.4c0.3-0.1,0.5-0.2,0.8-0.3
	c1-0.5,2.2-0.7,3.3-0.6c0.3,0.1,0.7,0.1,1,0c0.7,0,1.5-0.2,2.1-0.5c0.7-0.5,1.6-0.6,2.4-0.3c0.5,0.1,0.9-0.2,1.4-0.3
	c0.7-0.8,1.6-0.2,2.4-0.4c1.1-0.2,2.2-0.3,3.3-0.6c0.7-0.2,0.9,0,1.1,0.7c1,5.8,2,11.7,3,17.5c2.2,12.3,4.3,24.6,6.4,36.9
	c1.3,7.3,2.6,14.7,3.8,22.1c0.1,0.6,0,0.8-0.6,0.9c-5.3,0.9-10.7,1.9-16,2.8c-5.4,1-10.5-2.6-11.5-8c0-0.1,0-0.3-0.1-0.4
	c-1.4-8.1-2.8-16.2-4.3-24.3c-1.6-9.5-3.3-19-4.9-28.5c-0.2-0.3-0.5-0.6-0.5-1c-0.2-0.6-0.3-1.2-0.3-1.9
	C37.2,69.4,37.6,68.6,37.3,67.9z"/>
<path class="st4" d="M59.8,2.1c4.4-0.1,8.2,3,9,7.4c1.7,9.5,3.4,19,5,28.4c1.1,6,2.1,12,3.2,17.9c0.2,0.9,0,1.7-0.6,2.4
	c-0.4,0.6-0.7,0.6-1.2,0.2c-2.6-2-5.2-4-7.8-5.9c-1-0.7-2-1.4-2.9-2.1c-0.5-0.3-1.1-0.5-1.7-0.3c-1.5,0.3-3,0.5-4.5,0.8
	c-0.8,0.2-1.1,0-1.2-0.8c-1.1-6.5-2.3-13-3.4-19.5c-1.1-6.1-2.3-12.2-3.2-18.3c-0.7-5,2.8-9.6,7.8-10.3C58.8,2.1,59.3,2.1,59.8,2.1z
	"/>
<path class="st5" d="M77,122.1l12.2-2.1c5.1-0.9,10.1-1.8,15.1-2.7c4.1-0.7,8.1-1.5,12.2-2.2c5.8-1,11.7-2,17.5-3
	c1.5-0.3,3-0.5,4.4-0.8c0.2,0,0.5,0,0.7,0.1c0.2,5-3.3,9.3-8.2,10.1l-43.1,7.6c-2.8,0.5-5.7,1-8.5,1.5c-0.8,0.1-1.1,0-1.2-0.9
	C77.9,127.1,77.4,124.6,77,122.1z"/>
<path class="st6" d="M80,37.8c3-2.8,6.8-4.7,10.8-5.6c12.7-2.9,25.5,4.6,29.1,17.1c0.1,0.3,0.2,0.5,0.2,0.8
	c-0.1,0.8-0.7,1.1-1.3,0.6l-10.7-7.6c-1.4-1-1.9-0.9-2.8,0.5c-2.3,3.5-4.6,7-6.9,10.6c-0.5,0.8-0.8,0.8-1.5,0.3
	c-2.3-1.8-4.7-3.6-7.1-5.3c-0.4-0.2-0.7-0.5-0.9-0.9C86.8,44,83.7,40.4,80,37.8z"/>
<path class="st7" d="M53.2,51.8c-3.8,0.7-7.6,1.3-11.4,2c-0.7,0.1-1,0-0.8-0.8c1.5-5.6,4.9-10.4,9.7-13.6c2-1.4,2-1.3,2.5,1
	c0.7,3.4,1.3,6.9,1.9,10.3c0.3,0.7,0,1-0.7,0.9C54,51.6,53.6,51.7,53.2,51.8z"/>
<path class="st8" d="M55.7,169.3c-2.7-4.1-5.4-8-8.1-12c-0.2-0.3-0.3-0.7-0.1-1c1-3.6,4.1-4.7,7-4.6c0.3,0,0.6,0.1,0.7,0.4
	c1.9,4.6,3.3,9.4,1.9,14.4C56.8,167.5,56.3,168.4,55.7,169.3z"/>
<path class="st8" d="M144.3,153.6c1.2,0,2.4,0.2,3.5,0.5c0.5,0.1,0.9,0.3,0.3,0.9c-3.3,3.1-6.7,6.3-10,9.5c-0.2,0.2-0.5,0.3-0.9,0.3
	c-3.2-0.4-5.7-3-5.8-6.3c0-0.3,0.2-0.5,0.4-0.6C134.8,155.9,139.8,153.5,144.3,153.6z"/>
<path class="st9" d="M78.8,54.7c-1-5.8-2-11.2-3-16.9c2,1,3.9,2.2,5.5,3.8c1.2,1.1,2.3,2.3,3.3,3.7c0.4,0.6,0.4,0.8-0.1,1.4
	c-1.8,2.3-3.3,4.7-5,7L78.8,54.7z"/>
<path class="st0" d="M53.2,51.8c0.3-0.4,0.7-0.2,1.1-0.2c0.6,0,0.8-0.2,0.8-0.8c1.1-0.3,1.5,0.2,1.4,1.3c0,0.3,0.1,0.6-0.3,0.7
	s-0.4-0.3-0.4-0.6s-0.1-0.3-0.1-0.6c-0.4,0.3-0.6,0.8-0.3,1.3c0,0.1,0.1,0.1,0.1,0.2c0.3,0.4,0.8,0.6,1.2,0.3c0,0,0,0,0,0
	c1-0.5,1-0.5,1.3,0.4c-0.8,0.2-1.6,0.3-2.4,0.4c-0.7-0.4-1.1-1.1-1.2-1.9C54.3,51.5,53.6,52,53.2,51.8z"/>
<path class="st0" d="M49.6,55.2c-1.4,0.4-2.9,0.7-4.4,0.7c-0.1-0.7,0.3-1.4,1-1.6c0.7-0.3,1.5-0.2,2,0.4
	C48.6,55.2,49.1,55.2,49.6,55.2z"/>
<path class="st0" d="M37.3,67.9c0.4,0.7,0.2,1.5,0.4,2.2c-1.1,0.8-0.2,1.3,0.2,1.9l0.3,1l-1.1-0.5c-0.9-0.4-1.4-1.5-1-2.4
	c0.1-0.2,0.2-0.4,0.4-0.6C37.1,69.1,37.4,68.5,37.3,67.9z"/>
<path class="st0" d="M54.1,54.4c-0.8,0.2-1.6,0.4-2.4,0.3c-0.3-1,0.6-0.9,1.1-1C53.3,53.7,53.8,54,54.1,54.4z"/>
<path class="st10" d="M9.8,31.4c8.9,0.2,16.5,6.3,18.5,14.9c0.1,0.6,0.2,1.1,0.2,1.7c0.2,3.2,0.6,2.6-2.5,3.1
	c-7.5,1.4-15.9-3.6-19.3-10.4c-1.2-2.4-1.8-5-1.9-7.6c-0.1-0.5,0.2-1.1,0.8-1.2c0.1,0,0.1,0,0.2,0C7.2,31.5,8.5,31.4,9.8,31.4z"/>
<path class="st10" d="M30.1,31.1c0-3,1.1-5.9,3-8.2c0.6-0.7,1-0.7,1.8-0.2c5.9,3.9,7,13.7,2.1,18.7c-0.3,0.4-1,0.5-1.4,0.2
	c0,0-0.1-0.1-0.1-0.1C31.8,39,30.3,35.3,30.1,31.1z"/>
<path class="st11" d="M112.6,104.4c-4.9,2.8-10.8,3.4-16.2,1.7c-8.2-2.4-13.4-7.9-15.3-16.2s0.5-15.3,6.7-20.9
	c4.5-4.1,10.5-6.1,16.6-5.5c0.7,0.1,1.3,0.2,2,0.4c0.1-0.1,0.2,0,0.3,0.1c0,0,0,0,0,0c0,0.7-0.2,1.3-0.6,1.9c-1.4,0.2-2.9-0.1-4.3,0
	c-7.1,0-13.5,4-16.6,10.4c-3.8,7.2-3,14.3,1.8,20.7c3.4,4.8,9,7.7,14.9,7.6c9.9,0.3,18.4-6.9,19.7-16.7c0.7-5-0.5-10.1-3.5-14.2
	c-0.2-0.2-0.3-0.5-0.4-0.9c0.3-0.7,0.9-1.2,1.7-1.3c0.4,0.1,0.7,0.5,0.8,0.9c1.4,2.2,2.5,4.5,3.2,7c1.5,5.4,0.8,11.1-2,16
	c-0.1,0.1-0.1,0.2-0.2,0.3c-2.1,2.4-4.3,4.6-6.6,6.8C114.1,103.2,113.4,103.8,112.6,104.4z"/>
<path class="st11" d="M112.6,104.4c1.8-1.8,3.5-3.6,5.3-5.4c0.8-0.8,1.6-1.6,2.3-2.5c0.3-0.4,0.6-0.8,1.1-0.8
	c-0.7,1.7-1.8,3.2-3.1,4.4C116.7,102,114.8,103.4,112.6,104.4z"/>
<path class="st12" d="M106.6,63.9c0.9-0.2,1.7,0.5,2.6,0.4c0,0.1,0,0.1,0,0.2c0,0.7-0.2,1.4-0.4,2c-1,0.2-2-0.1-2.7-0.8
	C106.1,65.1,106.3,64.4,106.6,63.9z"/>
<path class="st13" d="M108.8,66.4c0.1-0.7-0.4-1.5,0.4-2l0.7,0.1l0.8,0.5c0.3,0.6,0.4,1.4,0.1,2C110,67.6,109.4,67.1,108.8,66.4z"/>
<path class="st14" d="M38,72c-0.4-0.2-0.7-0.4-1-0.6c-0.5-0.6-0.2-1.1,0.7-1.3L38,72z"/>
<path class="st15" d="M62.7,47.5c-2.2,0.1-4.1-1.6-4.2-3.8c0-0.8,0.2-1.6,0.6-2.3c1.5-2.4,3.2-4.7,4.9-7c1.5-1.6,4-1.8,5.6-0.3
	c1.3,1.2,1.7,3.1,1,4.7c-1.6,2.6-3.4,5-5.2,7.5C64.7,47,63.7,47.5,62.7,47.5z"/>
<path class="st16" d="M64.3,18.4c2.2-0.1,4,1.6,4.1,3.7c0,0.7-0.1,1.5-0.5,2.1c-1.5,2.5-3.2,4.9-5,7.3c-1.3,1.6-3.6,1.9-5.2,0.7
	c-1.8-1.1-2.4-3.3-1.4-5.1c1.6-2.5,3.3-4.9,5.1-7.3C62.2,18.8,63.2,18.3,64.3,18.4z"/>
<path class="st5" d="M108.8,66.4l1.9,0.7c0.9-0.2,1.4,0.7,2.1,0.8c0.5,0.3,0.9,0.6,1.3,1c0.5,0.4,1,0.8,1.5,1.2c0.3,0.3,0.7,0.7,1,1
	c0.4,0.5,1.1,0.8,1.2,1.6c1.9,2.6,3.3,5.6,4,8.7c2,10.7-5,21.1-15.8,23.1S85,99.6,83,88.8c-2-10.7,5-21.1,15.8-23.1
	c2.3-0.4,4.7-0.5,7.1,0h0.4L108.8,66.4z"/>
<path class="st11" d="M117.8,72.7l-1.4-1.4c0.4-0.5,0.9-1,1.5-1.4l1.6,1.8L117.8,72.7z"/>
<path class="st17" d="M113.1,65.9c0.4-1.9,2.7-2.5,4.4-1.2c1.4,1.3,1.5,3.4,0.4,4.9c-0.5,0-0.7-0.4-1.1-0.6c-0.6-0.5-1.2-1-1.9-1.4
	c-0.6-0.4-1.1-0.8-1.7-1.3C113.1,66.3,113.1,66.1,113.1,65.9z"/>
<path class="st11" d="M113.1,65.9l0.2,0.3c-0.5,0.6,0,1.4-0.4,2c-0.8-0.2-1.5-0.6-2.1-1c0-0.7,0-1.4,0.1-2.1
	C111.6,65.2,112.2,65.9,113.1,65.9z"/>
<path class="st18" d="M116.9,68.9l1,0.8c0,0.1,0,0.2,0.1,0.2c-0.1,0.8-0.8,1.1-1.5,1.4l-1-0.9C115.6,69.5,116,68.9,116.9,68.9z"/>
<path class="st19" d="M62.6,45.4c-1,0.1-2-0.6-2.1-1.6c-0.1-0.4,0-0.9,0.3-1.2c1.5-2.3,3.1-4.5,4.7-6.7c0.6-0.8,1.7-1.1,2.5-0.5
	c0.1,0,0.1,0.1,0.2,0.2c0.8,0.6,1,1.8,0.4,2.6c0,0,0,0,0,0c-1.4,2.1-2.8,4.1-4.3,6.2C63.9,44.9,63.4,45.5,62.6,45.4z"/>
<path class="st20" d="M64.3,20.4c1-0.1,1.9,0.7,2,1.7c0,0.4,0,0.7-0.2,1c-1.5,2.4-3.2,4.7-4.8,7c-0.7,0.8-1.8,0.9-2.6,0.2
	c-0.8-0.6-1-1.7-0.4-2.5c0,0,0,0,0,0c1.5-2.2,3-4.4,4.6-6.6C63.2,20.7,63.7,20.4,64.3,20.4z"/>
<path class="st12" d="M112.8,68.2c-0.1-0.4-0.1-0.8-0.2-1.3s0-0.8,0.6-0.8c0.6,0.3,1.2,0.8,1.8,1.3c0.6,1.2,0.4,1.6-1,1.7
	L112.8,68.2z"/>
<path class="st11" d="M114.1,69.1c0.9-0.2,1.3-0.7,1-1.7c0.7,0.4,1.3,0.8,1.9,1.4c-0.6,0.4-1.1,0.9-1.4,1.5L114.1,69.1z"/>
<path d="M103.2,101.2h-0.2c-0.4,0-0.9,0-1.3,0c-1.5,0-3-0.2-4.4-0.7c-0.2-0.1-0.4-0.2-0.6-0.2c-0.9-0.4-1.8-0.8-2.7-1.3
	c-0.7-0.5-1.3-0.9-1.9-1.4l-0.1-0.1c-0.4-0.3-0.7-0.6-1-0.9c-0.2-0.2-0.3-0.3-0.5-0.5c-0.5-0.6-0.9-1.2-1.4-1.8
	c-0.7-1.1-1.3-2.3-1.8-3.5c-0.1-0.3-0.2-0.6-0.3-0.8c-0.3-1-0.5-1.9-0.6-2.9c0-0.1,0-0.2-0.1-0.3c0-0.4,0-0.8,0-1.2
	c0-1.1,0.1-2.2,0.3-3.3c0.1-0.3,0.1-0.6,0.2-0.9c0.1-0.4,0.2-0.8,0.4-1.2c0.3-0.7,0.5-1.3,0.9-2c0.4-0.8,0.9-1.5,1.4-2.2
	c0.1-0.1,0.1-0.1,0.1-0.2c0.3-0.3,0.6-0.7,0.8-1c0.4-0.4,0.8-0.8,1.2-1.2s0.7-0.6,1.1-0.9l0.3-0.2c0.7-0.5,1.4-0.9,2.2-1.3
	c0.7-0.3,1.4-0.6,2.1-0.8c0.4-0.2,0.9-0.3,1.4-0.4c0.3-0.1,0.7-0.1,1-0.2c2-0.3,4.1-0.3,6.1,0.1c0.6,0.1,1.2,0.3,1.9,0.5
	c0.4,0.2,0.9,0.3,1.3,0.5c0.9,0.4,1.8,0.9,2.6,1.5c1.4,1,2.7,2.2,3.7,3.6c0.8,1.1,1.5,2.2,2,3.5c0.1,0.2,0.1,0.4,0.2,0.6
	c0.6,1.5,0.9,3.1,0.9,4.7v1.6c0,0.9-0.1,1.7-0.2,2.6c-0.2,0.7-0.4,1.4-0.6,2.1c-0.3,0.8-0.6,1.5-1,2.3c-0.4,0.7-0.9,1.4-1.4,2
	c-0.1,0.2-0.3,0.4-0.5,0.6c-0.1,0.1-0.3,0.3-0.4,0.4c-0.3,0.4-0.6,0.7-1,1c-0.1,0.1-0.2,0.2-0.3,0.3c-0.1,0.1-0.3,0.2-0.4,0.3
	c-0.3,0.3-0.7,0.5-1,0.8h-0.1c-0.6,0.4-1.4,0.8-2,1.2c-0.4,0.2-0.8,0.4-1.2,0.5c-0.6,0.2-1.2,0.4-1.8,0.6c-0.9,0.3-1.9,0.4-2.8,0.4
	C103.5,101,103.3,101.1,103.2,101.2z"/>
<path class="st21" d="M118.3,86.1L118.3,86.1L118.3,86.1v-1.8c0,0,0,0,0.1,0L118.3,86.1z"/>
<path class="st22" d="M101.6,101.2C101.6,101.2,101.6,101.1,101.6,101.2c0.5-0.1,0.9-0.1,1.4,0H101.6z"/>
<path class="st5" d="M102.3,71.4c7.7,0,13.9,6.2,13.9,13.8c0,7.7-6.2,13.9-13.8,13.9c-7.5,0-13.7-6-13.9-13.5
	c-0.2-7.7,5.9-14,13.6-14.2C102.2,71.4,102.3,71.4,102.3,71.4z"/>
<path d="M107.8,91c-3.4,0-6.1-2.7-6.1-6.1c0-3.4,2.7-6.1,6.1-6.1c3.4,0,6.1,2.7,6.1,6.1c0,0,0,0.1,0,0.1
	C113.9,88.3,111.1,91,107.8,91z"/>
<path class="st5" d="M110.4,81.4c0.8,0,1.5,0.6,1.5,1.5c0,0,0,0,0,0c0,0.8-0.6,1.5-1.5,1.6c0,0,0,0-0.1,0c-0.9,0-1.5-0.7-1.5-1.5
	S109.6,81.4,110.4,81.4L110.4,81.4z"/>
</svg>
