<svg id="Слой_1" data-name="Слой 1" xmlns="http://www.w3.org/2000/svg" viewBox="0 0 66.71 68"><defs><style>.cls-1{fill:#2a2a2a;}.cls-2{fill:#2a2a29;}.cls-3{fill:#2b2b2a;}.cls-4{fill:#323232;}.cls-5{fill:#fea64d;}.cls-6{fill:#fefefe;}.cls-7{fill:#fee065;}.cls-8{fill:#fc7756;}.cls-9{fill:#9acc86;}.cls-10{fill:#fa7756;}.cls-11{fill:#99cc85;}.cls-12{fill:#2b2928;}.cls-13{fill:#2d2c28;}.cls-14{fill:#2b2c2d;}.cls-15{fill:#282828;}.cls-16{fill:#2f2927;}.cls-17{fill:#2f2825;}.cls-18{fill:#f5a851;}.cls-19{fill:#342c22;}.cls-20{fill:#f9a74c;}.cls-21{fill:#f8a84f;}.cls-22{fill:#7d7d7d;}.cls-23{fill:#747474;}</style></defs><path class="cls-1" d="M56.12,57.63a11.08,11.08,0,0,1,4.38,8.08,23.72,23.72,0,0,1,2.25-1A9.24,9.24,0,0,1,68,64.3a4.59,4.59,0,0,1,1.54.65c.41.27.44.61.08.92l-5.46,4.59a1,1,0,0,1-.68.2,3.86,3.86,0,0,1-4-2.94c-.23-1-.14-2-.33-3a10.24,10.24,0,0,0-4.32-6.62,16.65,16.65,0,0,0-5.57-2.41,5.31,5.31,0,0,0-2.14,0c-2,.3-3.93.62-5.9.91-.37.05-.39.17-.36.46a8.22,8.22,0,0,1-.9,5.24,6.56,6.56,0,0,1-5.19,3.09,19.38,19.38,0,0,1-6.84-.58,16.83,16.83,0,0,1,.72,2.4,5.76,5.76,0,0,1-1,4.88,2.37,2.37,0,0,1-.34.37c-.5.47-.89.45-1.29-.08-1.35-1.76-2.68-3.52-4-5.27a.92.92,0,0,1-.18-.84,3.78,3.78,0,0,1,3.62-2.86,6.67,6.67,0,0,1,2.27.21,19.85,19.85,0,0,0,5.79.8,6.36,6.36,0,0,0,4.83-1.87,6.06,6.06,0,0,0,1.39-3.84,12.63,12.63,0,0,0-.05-1.51c0-.33-.17-.34-.46-.29L28.65,58.54a6.13,6.13,0,0,1-4.15-.62,5.13,5.13,0,0,0-1.93-1.7,3.8,3.8,0,0,1-.74-1.7L18,35.09c0-.13,0-.25,0-.38s-.08-.3,0-.4c.29-.29,0-.35-.19-.47q-.64-3.23-1.28-6.46c-.13-.64,0-.8.75-.91A5.36,5.36,0,0,0,19,26.15c.47-.26.39-.92.59-1.39a10.81,10.81,0,0,1,5.33-5.63c.32-.16.4-.3.34-.62-.59-2.88-1.18-5.75-1.74-8.63a4.39,4.39,0,0,1,3-4.73,5.5,5.5,0,0,1,6,1.32,5.22,5.22,0,0,1,1.16,2.65c.6,3,1.23,6.09,1.81,9.14.08.45.49.48.79.67a.77.77,0,0,0,1-.11,13.05,13.05,0,0,1,14.17-.71,10.61,10.61,0,0,1,4.55,5c.07.14.14.28.23.48l2.25-3,.24-.32a.62.62,0,0,1,.65-.23.52.52,0,0,1,.46.46c.24,1.19.48,2.38.71,3.57l3,15.09c.58,2.94,1.18,5.88,1.73,8.82.5,2.6-1.53,5.12-4.47,5.63l-1.37.19c-.2-.11-.05-.47-.36-.47s-.42.3-.53.53a.31.31,0,0,1-.09.11L51.18,55a17.54,17.54,0,0,1,3.55,1.64c0,.24-.25.11-.32.23A1.5,1.5,0,0,0,56.12,57.63Z" transform="translate(-3.14 -4.77)"/><path class="cls-2" d="M12.45,25.75c-4.5,0-8.51-3-9.23-6.83a6.75,6.75,0,0,1,0-1.74c0-.26.15-.38.42-.46a8.49,8.49,0,0,1,4.94-.14c3.75,1,6.16,3.17,6.9,6.63a2.47,2.47,0,0,1,.07.66c0,1.57.19,1.34-1.61,1.77A6.17,6.17,0,0,1,12.45,25.75Z" transform="translate(-3.14 -4.77)"/><path class="cls-3" d="M20.65,17.83A5.12,5.12,0,0,1,18.51,22a.6.6,0,0,1-.7.07,5.4,5.4,0,0,1-3.41-4.83,5,5,0,0,1,2-4.41.86.86,0,0,1,1-.11,5.5,5.5,0,0,1,3.13,4A3.89,3.89,0,0,1,20.65,17.83Z" transform="translate(-3.14 -4.77)"/><path class="cls-1" d="M22.57,56.22a2.88,2.88,0,0,1,1.93,1.7A4.39,4.39,0,0,1,22.57,56.22Z" transform="translate(-3.14 -4.77)"/><path class="cls-1" d="M56.12,57.63a.93.93,0,0,1-1.27-.09l-.21-.21c-.51-.5-.51-.5.09-.65a1.29,1.29,0,0,1,.45.27c-.07.39,0,.43.53.38A.83.83,0,0,1,56.12,57.63Z" transform="translate(-3.14 -4.77)"/><path class="cls-1" d="M58.36,53.92a.66.66,0,0,1,0-.14.63.63,0,0,1,.66-.65c.47,0,.24.39.31.62A5.43,5.43,0,0,1,58.36,53.92Z" transform="translate(-3.14 -4.77)"/><path class="cls-4" d="M55.71,57.33a.23.23,0,0,1-.34.19c-.21-.08-.44-.2-.48-.42S55,57,55.18,57Z" transform="translate(-3.14 -4.77)"/><path class="cls-1" d="M17.77,33.84l0,0c.21.14.4-.33.56,0s-.18.31-.31.44-.06.3-.12.44Z" transform="translate(-3.14 -4.77)"/><path class="cls-5" d="M36.23,52.81q-1-5.22-2.08-10.44c-.51-2.55-1-5.1-1.53-7.65-.55-2.8-1.09-5.6-1.64-8.4,0,0,0-.05.06-.12l4.15,2.74c.71.47.91.45,1.41-.19q1.62-2.05,3.2-4.12c.24-.31.4-.34.74-.11,1.43,1,2.88,1.9,4.31,2.86.78.52,1,.51,1.52-.22,1-1.33,2-2.67,3-4,.23-.32.38-.32.69-.12l4.62,2.9c.72.45.9.42,1.4-.24L58.83,22c.18.86.34,1.62.49,2.38l2.4,12.3L64,48.26c0,.1,0,.19,0,.28a8.11,8.11,0,0,1-2.13.41c-2.4.39-4.81.77-7.21,1.13-2.64.39-5.27.82-7.9,1.21s-5.16.79-7.74,1.23c-.76.13-1.54.24-2.31.36A.55.55,0,0,1,36.23,52.81Z" transform="translate(-3.14 -4.77)"/><path class="cls-6" d="M18.52,31.47c-.24-1.22-.45-2.44-.71-3.65-.06-.28,0-.37.32-.41,1.19-.17,2.38-.36,3.56-.55a2,2,0,0,0,.35-.1,3.91,3.91,0,0,1,1.48-.25,1.24,1.24,0,0,0,.47,0,2.34,2.34,0,0,0,1-.19A1.26,1.26,0,0,1,26,26.19c.23,0,.41-.08.62-.11.32-.32.74-.09,1.1-.16s1-.12,1.47-.22.42,0,.48.29c.43,2.29.9,4.58,1.35,6.87l2.88,14.53c.57,2.9,1.13,5.79,1.7,8.68,0,.23,0,.3-.27.34-2.39.36-4.77.76-7.17,1.1A4.38,4.38,0,0,1,23,54.22c-.63-3.19-1.27-6.37-1.9-9.56-.74-3.73-1.46-7.46-2.19-11.19-.07-.14-.21-.23-.24-.39a2.59,2.59,0,0,1-.12-.73C18.45,32.06,18.64,31.76,18.52,31.47Z" transform="translate(-3.14 -4.77)"/><path class="cls-5" d="M28.54,5.6a3.92,3.92,0,0,1,4,2.9c.77,3.72,1.5,7.45,2.25,11.17.47,2.36.93,4.71,1.42,7.06a1,1,0,0,1-.24.95c-.18.22-.31.24-.55.08-1.16-.79-2.33-1.56-3.51-2.32-.43-.29-.88-.54-1.3-.83a1,1,0,0,0-.76-.11c-.67.1-1.34.2-2,.33-.35.07-.47,0-.53-.32q-.75-3.82-1.52-7.65c-.48-2.4-1-4.79-1.41-7.19C24,7.47,26,5.58,28.54,5.6Z" transform="translate(-3.14 -4.77)"/><path class="cls-6" d="M36.23,52.81,41.69,52l6.76-1.06c1.82-.28,3.63-.6,5.45-.88l7.83-1.18,2-.33a.79.79,0,0,1,.31,0,4.05,4.05,0,0,1-3.67,4l-19.23,3c-1.26.2-2.53.38-3.79.59-.36,0-.49,0-.55-.34C36.63,54.78,36.42,53.79,36.23,52.81Z" transform="translate(-3.14 -4.77)"/><path class="cls-7" d="M37.56,19.63a11.11,11.11,0,0,1,4.81-2.21c5.69-1.16,11.36,1.78,13,6.73a.88.88,0,0,1,.07.32c0,.32-.29.43-.59.24q-2.41-1.49-4.81-3c-.61-.38-.84-.35-1.25.2-1,1.38-2.06,2.76-3.07,4.15-.21.3-.34.34-.67.1-1-.72-2.11-1.4-3.16-2.1a1.1,1.1,0,0,1-.41-.36A11.11,11.11,0,0,0,37.56,19.63Z" transform="translate(-3.14 -4.77)"/><path class="cls-8" d="M25.61,25.16l-5.09.8c-.3.05-.44,0-.33-.3a9.65,9.65,0,0,1,4.33-5.37c.88-.53.91-.51,1.1.41.29,1.36.56,2.71.84,4.07.12.25,0,.38-.3.36A1,1,0,0,0,25.61,25.16Z" transform="translate(-3.14 -4.77)"/><path class="cls-9" d="M26.72,71.34l-3.61-4.71a.39.39,0,0,1-.05-.39c.45-1.41,1.81-1.83,3.12-1.81.14,0,.23,0,.29.16.84,1.83,1.45,3.68.84,5.67A2.59,2.59,0,0,1,26.72,71.34Z" transform="translate(-3.14 -4.77)"/><path class="cls-9" d="M66.31,65.17a4.82,4.82,0,0,1,1.56.22c.22.06.38.12.13.33l-4.45,3.73a.52.52,0,0,1-.38.13,2.72,2.72,0,0,1-2.59-2.48.28.28,0,0,1,.18-.25A12,12,0,0,1,66.31,65.17Z" transform="translate(-3.14 -4.77)"/><path class="cls-10" d="M37,26.27l-1.32-6.64a9.68,9.68,0,0,1,2.45,1.48,10.33,10.33,0,0,1,1.45,1.43c.19.23.17.32,0,.57-.78.89-1.48,1.83-2.21,2.76Z" transform="translate(-3.14 -4.77)"/><path class="cls-1" d="M25.61,25.16c.14-.15.33-.1.49-.1s.35-.09.36-.29c.48-.1.67.08.62.49,0,.1,0,.25-.14.26s-.18-.11-.19-.22a1,1,0,0,0-.05-.23c-.26.2-.26.38-.09.57a.44.44,0,0,0,.56.12c.44-.2.44-.2.56.16a10,10,0,0,1-1.1.16c-.26-.2-.51-.39-.53-.75S25.78,25.22,25.61,25.16Z" transform="translate(-3.14 -4.77)"/><path class="cls-1" d="M24,26.49a8,8,0,0,1-1.95.27.57.57,0,0,1,.44-.63.81.81,0,0,1,.88.16A.84.84,0,0,0,24,26.49Z" transform="translate(-3.14 -4.77)"/><path class="cls-1" d="M18.52,31.47c.17.27.08.58.19.87-.49.3-.08.51.1.74l.11.39-.48-.19a.68.68,0,0,1-.23-1.19A.64.64,0,0,0,18.52,31.47Z" transform="translate(-3.14 -4.77)"/><path class="cls-1" d="M26,26.19a3.51,3.51,0,0,1-1.07.11c-.13-.4.26-.34.48-.37A.63.63,0,0,1,26,26.19Z" transform="translate(-3.14 -4.77)"/><path class="cls-11" d="M6.21,17.12c3.93,0,7.49,2.59,8.26,5.87a3.51,3.51,0,0,1,.09.65c.07,1.25.29,1-1.1,1.23a8.84,8.84,0,0,1-8.6-4.09,6.17,6.17,0,0,1-.82-3c0-.3.13-.41.44-.48A7.88,7.88,0,0,1,6.21,17.12Z" transform="translate(-3.14 -4.77)"/><path class="cls-11" d="M15.29,17a4.72,4.72,0,0,1,1.32-3.22.54.54,0,0,1,.8-.08,4.72,4.72,0,0,1,.94,7.37.47.47,0,0,1-.68.05A4.85,4.85,0,0,1,15.29,17Z" transform="translate(-3.14 -4.77)"/><path class="cls-12" d="M52.15,45.82a10.18,10.18,0,0,1-7.24.68c-3.65-1-6-3.12-6.81-6.39s.24-6,3-8.23a10.37,10.37,0,0,1,7.39-2.17,8.5,8.5,0,0,1,.88.15.11.11,0,0,1,.14.05,1.59,1.59,0,0,1-.25.76c-.64.06-1.28,0-1.92,0a8.35,8.35,0,0,0-7.41,4.08c-1.71,2.83-1.35,5.62.78,8.15a8.57,8.57,0,0,0,6.67,3,9.21,9.21,0,0,0,5.53-1.6,7.34,7.34,0,0,0,3.27-5,6.83,6.83,0,0,0-1.58-5.57.45.45,0,0,1-.15-.34.91.91,0,0,1,.76-.49.54.54,0,0,1,.37.35A10.1,10.1,0,0,1,57,36.05a7.44,7.44,0,0,1-.87,6.28.35.35,0,0,1-.1.11c-1,.92-1.94,1.81-3,2.68A6.46,6.46,0,0,1,52.15,45.82Z" transform="translate(-3.14 -4.77)"/><path class="cls-12" d="M52.15,45.82c.78-.7,1.58-1.4,2.35-2.11a8.53,8.53,0,0,0,1-1,.56.56,0,0,1,.51-.3,4.86,4.86,0,0,1-1.38,1.75A7.62,7.62,0,0,1,52.15,45.82Z" transform="translate(-3.14 -4.77)"/><path class="cls-13" d="M49.46,29.9c.41-.06.77.2,1.18.15a.11.11,0,0,1,0,.08c-.06.26,0,.55-.18.79a1.61,1.61,0,0,1-1.21-.3A1.19,1.19,0,0,1,49.46,29.9Z" transform="translate(-3.14 -4.77)"/><path class="cls-14" d="M50.45,30.9c0-.26-.17-.57.19-.77l.31,0,.37.18a.82.82,0,0,1,0,.8C51,31.35,50.7,31.14,50.45,30.9Z" transform="translate(-3.14 -4.77)"/><path class="cls-15" d="M18.81,33.08a2,2,0,0,1-.43-.25c-.22-.23-.08-.43.33-.49Z" transform="translate(-3.14 -4.77)"/><path class="cls-16" d="M29.86,23.45c-1.5,0-2.38-1.35-1.63-2.39s1.42-1.85,2.18-2.74a1.91,1.91,0,0,1,2.4-.29,1.42,1.42,0,0,1,.55,2C32.64,21,31.84,22,31,23A1.56,1.56,0,0,1,29.86,23.45Z" transform="translate(-3.14 -4.77)"/><path class="cls-17" d="M30.58,12c1.41,0,2.31,1.27,1.61,2.29a30.84,30.84,0,0,1-2.26,2.86,1.88,1.88,0,0,1-2.32.27,1.41,1.41,0,0,1-.59-2c.71-1,1.5-2,2.29-2.89A1.54,1.54,0,0,1,30.58,12Z" transform="translate(-3.14 -4.77)"/><path class="cls-6" d="M50.45,30.9l.84.29c.39-.06.62.27,1,.32a3.92,3.92,0,0,1,.59.37,7.89,7.89,0,0,1,.65.49l.46.4c.18.2.48.32.53.6a8.29,8.29,0,0,1,1.78,3.44C57.18,41,54.08,45,49.31,45.9S40,44.05,39,40c-1.35-5.42,3.88-10.27,10.11-9.36h.16Z" transform="translate(-3.14 -4.77)"/><path class="cls-12" d="M54.48,33.37l-.61-.57a3,3,0,0,1,.65-.56l.73.73Z" transform="translate(-3.14 -4.77)"/><path class="cls-18" d="M52.35,30.71c.16-.74,1.22-1,2-.47a1.31,1.31,0,0,1,.16,1.92c-.22,0-.32-.15-.48-.24a6.13,6.13,0,0,0-.85-.54c-.24-.17-.53-.3-.75-.49A.32.32,0,0,1,52.35,30.71Z" transform="translate(-3.14 -4.77)"/><path class="cls-12" d="M52.35,30.71l.08.1c-.23.23,0,.55-.19.79a3.5,3.5,0,0,1-1-.41l0-.84C51.69,30.42,52,30.67,52.35,30.71Z" transform="translate(-3.14 -4.77)"/><path class="cls-19" d="M54.06,31.86l.43.3a.11.11,0,0,0,0,.08c-.07.33-.36.45-.65.56l-.44-.37A.59.59,0,0,1,54.06,31.86Z" transform="translate(-3.14 -4.77)"/><path class="cls-20" d="M29.81,22.62c-.74,0-1.19-.6-.8-1.13.65-.89,1.36-1.76,2.07-2.62a.9.9,0,0,1,1.23-.14.68.68,0,0,1,.17,1c-.62.82-1.26,1.63-1.91,2.44A.81.81,0,0,1,29.81,22.62Z" transform="translate(-3.14 -4.77)"/><path class="cls-21" d="M30.57,12.8c.68,0,1.17.6.82,1.08-.68.94-1.42,1.85-2.17,2.74a.89.89,0,0,1-1.16.09.66.66,0,0,1-.19-1c.67-.88,1.36-1.74,2.05-2.59A.82.82,0,0,1,30.57,12.8Z" transform="translate(-3.14 -4.77)"/><path class="cls-13" d="M52.24,31.6c0-.17-.06-.33-.08-.5s0-.3.27-.29a4,4,0,0,1,.79.49c.29.47.2.61-.43.66Z" transform="translate(-3.14 -4.77)"/><path class="cls-12" d="M52.79,32c.4-.09.6-.28.43-.66a2.87,2.87,0,0,1,.84.56,1.82,1.82,0,0,0-.63.57Z" transform="translate(-3.14 -4.77)"/><path d="M47.92,44.57h-.1a3.88,3.88,0,0,0-.59,0,6.48,6.48,0,0,1-2-.29,1.06,1.06,0,0,0-.25-.09,8.52,8.52,0,0,1-1.2-.52c-.29-.19-.6-.36-.87-.57l0,0a5.28,5.28,0,0,1-.44-.36,2.18,2.18,0,0,1-.22-.21q-.31-.33-.6-.69a5.81,5.81,0,0,1-.79-1.36l-.12-.33a5.91,5.91,0,0,1-.27-1.16.44.44,0,0,1,0-.1,2.36,2.36,0,0,1,0-.46,6.29,6.29,0,0,1,.14-1.29c0-.12.06-.24.09-.36a3.94,3.94,0,0,1,.18-.48,5.86,5.86,0,0,1,.38-.8,6.65,6.65,0,0,1,.62-.88l.07-.08c.11-.13.24-.26.36-.39l.55-.49.48-.34.15-.09a8,8,0,0,1,1-.52c.3-.12.61-.24.92-.33a6.06,6.06,0,0,1,.61-.16l.44-.08a8.33,8.33,0,0,1,2.73,0,7.75,7.75,0,0,1,.83.21,5.31,5.31,0,0,1,.56.2,7,7,0,0,1,2.83,2,5.71,5.71,0,0,1,.88,1.37l.1.22a4.25,4.25,0,0,1,.4,1.85v.65a3.82,3.82,0,0,1-.11,1,8.51,8.51,0,0,1-.29.85,4.62,4.62,0,0,1-.46.88,7.8,7.8,0,0,1-.61.81l-.2.22a.81.81,0,0,0-.16.16,2.88,2.88,0,0,1-.46.39l-.14.11a1.67,1.67,0,0,1-.16.12c-.14.11-.3.2-.45.31l0,0c-.29.18-.6.31-.91.47l-.55.21c-.26.08-.52.16-.79.22a5.29,5.29,0,0,1-1.25.16A.41.41,0,0,0,47.92,44.57Z" transform="translate(-3.14 -4.77)"/><path class="cls-22" d="M54.7,38.63h0V38s0,0,0,0Z" transform="translate(-3.14 -4.77)"/><path class="cls-23" d="M47.21,44.57v0a2.49,2.49,0,0,1,.61,0Z" transform="translate(-3.14 -4.77)"/><path class="cls-6" d="M47.56,32.84c3.4,0,6,2.35,6.21,5.18.17,3.15-2.62,5.59-5.87,5.73-3.62.15-6.43-2.38-6.51-5.31S44,32.88,47.56,32.84Z" transform="translate(-3.14 -4.77)"/><path d="M50,40.57A2.41,2.41,0,1,1,52.7,38.2,2.58,2.58,0,0,1,50,40.57Z" transform="translate(-3.14 -4.77)"/><path class="cls-6" d="M51.17,36.81a.61.61,0,1,1,0,1.21.68.68,0,0,1-.71-.61A.65.65,0,0,1,51.17,36.81Z" transform="translate(-3.14 -4.77)"/></svg>