<svg id="Слой_1" data-name="Слой 1" xmlns="http://www.w3.org/2000/svg" viewBox="0 0 100.8 77.54"><defs><style>.cls-1{fill:#101010;}</style></defs><path class="cls-1" d="M315.51,399.26q0,17.26,0,34.54c0,1.7-.47,3.06-2.09,3.77a3.69,3.69,0,0,1-4.23-.84c-7.49-6.55-15-13-22.52-19.59a3.55,3.55,0,0,0-2.51-.91c-6.49,0-13,0-19.47,0-3,0-4.32-1.26-4.32-4.28V386.1c0-2.9,1.35-4.25,4.26-4.25,6.71,0,13.42,0,20.13,0a3.17,3.17,0,0,0,2.35-.88c7.27-6.42,14.57-12.79,21.85-19.19,1.32-1.16,2.73-1.9,4.48-1s2.08,2.21,2.07,4C315.49,376.23,315.51,387.74,315.51,399.26Z" transform="translate(-260.39 -360.38)"/><path d="M341.4,404.25c-4.3,7.45-8.48,14.69-12.65,21.93-.31.53-.62,1.07-.94,1.6-1.22,2.06-2.95,2.69-4.6,1.69s-1.91-2.74-.76-4.74q3.58-6.24,7.2-12.47c2.51-4.33,5-8.68,7.53-13a2.15,2.15,0,0,0,0-2.52Q330,384.38,322.83,372c-1.43-2.47-1.28-4.24.45-5.28s3.44-.33,4.91,2.23l12.39,21.45c.23.4.48.78.77,1.25a4.41,4.41,0,0,0,1.23-1.75q6-10.44,12.07-20.91c.24-.4.47-.81.72-1.19a3.07,3.07,0,0,1,4.27-1.2,3,3,0,0,1,1,4.31c-2.75,4.85-5.56,9.66-8.34,14.49-2.17,3.75-4.3,7.53-6.53,11.25a2.37,2.37,0,0,0,0,2.8c4.84,8.29,9.62,16.61,14.42,24.92.23.41.47.8.67,1.22a3,3,0,0,1-1.15,4.05,2.94,2.94,0,0,1-4.08-1c-1.07-1.64-2-3.37-3-5.06q-5.19-9-10.38-18C342,405.23,341.78,404.85,341.4,404.25Z" transform="translate(-260.39 -360.38)"/></svg>