<svg id="Слой_1" data-name="Слой 1" xmlns="http://www.w3.org/2000/svg" viewBox="0 0 100.8 78.6"><defs><style>.cls-1{fill:#101010;}</style></defs><path class="cls-1" d="M314.07,399.26c0,11.67,0,23.34,0,35,0,1.72-.47,3.1-2.12,3.83a3.75,3.75,0,0,1-4.28-.85c-7.59-6.64-15.24-13.22-22.83-19.86a3.52,3.52,0,0,0-2.54-.92c-6.58,0-13.16,0-19.73,0-3.1,0-4.39-1.27-4.39-4.33V385.92c0-2.93,1.37-4.3,4.31-4.31,6.81,0,13.61,0,20.42,0a3.32,3.32,0,0,0,2.38-.89c7.36-6.51,14.76-13,22.14-19.45,1.34-1.18,2.77-1.93,4.54-1.06s2.11,2.23,2.11,4C314.05,375.91,314.07,387.59,314.07,399.26Z" transform="translate(-258.2 -359.85)"/><path class="cls-1" d="M359,399.14a60.91,60.91,0,0,1-12.57,37.09c-1,1.3-2.12,2.36-3.94,2a3.6,3.6,0,0,1-2.21-5.9,52.27,52.27,0,0,0,9.9-20.3c3.9-16.71.43-31.88-9.88-45.53a3.76,3.76,0,0,1-1-3.29,3.38,3.38,0,0,1,2.48-2.76,3.73,3.73,0,0,1,4.05,1.37A60.62,60.62,0,0,1,359,399.14Z" transform="translate(-258.2 -359.85)"/><path class="cls-1" d="M345.64,400a46.43,46.43,0,0,1-8.94,27.12,3.62,3.62,0,0,1-5.33.95,3.68,3.68,0,0,1-.52-5.19,40.12,40.12,0,0,0-.08-47c-1.46-2-1.28-4.06.47-5.39a3.63,3.63,0,0,1,5.3,1A46.67,46.67,0,0,1,345.2,393C345.49,395.11,345.49,397.24,345.64,400Z" transform="translate(-258.2 -359.85)"/><path class="cls-1" d="M331.36,398.94c-.16,6.71-1.56,12.55-4.88,17.87a3.46,3.46,0,0,1-3.57,1.74,3.54,3.54,0,0,1-3-2.57,3.59,3.59,0,0,1,.47-3q7.67-13.77-.21-27.42a3.69,3.69,0,0,1,1.05-5,3.54,3.54,0,0,1,5.14,1.23A31.47,31.47,0,0,1,331,395.07,20.35,20.35,0,0,1,331.36,398.94Z" transform="translate(-258.2 -359.85)"/></svg>