<svg id="Слой_1" data-name="Слой 1" xmlns="http://www.w3.org/2000/svg" viewBox="0 0 300 300"><defs><style>.cls-1{fill:#fefefe;}</style></defs><path d="M449,245.93c5.2,0,8.39,5.3,6.19,10.56-4.15,9.93-8.47,19.78-12.72,29.66Q388.12,412.53,333.75,538.89c-.26.6-.54,1.2-.77,1.81-1.16,3.13-3.36,5.11-6.72,5.23s-5.55-1.78-7-4.78c-7.29-14.7-14.66-29.36-22-44-9.74-19.5-19.52-39-29.18-58.53a9.91,9.91,0,0,0-4.87-4.77Q212.56,408.67,162,383.42c-3.39-1.68-6.27-3.61-6.09-7.81.18-4,3.07-5.73,6.4-7.16q140.58-60.31,281.14-120.68C445.24,247,447,245.93,449,245.93Z" transform="translate(-155.9 -245.93)"/><path class="cls-1" d="M427,286.14Q376.31,403.71,325.43,521.8c-.9-1.8-1.58-3.14-2.25-4.47Q302.56,476.14,281.9,435c-1-2-1.66-3.35.41-5.41Q353.94,358.22,425.4,286.7c.37-.36.79-.69,1.18-1Z" transform="translate(-155.9 -245.93)"/><path class="cls-1" d="M416.85,276a35.38,35.38,0,0,0-3.39,2.65q-70.15,70-140.23,140.2c-2.22,2.22-3.68,2.57-6.61,1.09-28.57-14.44-57.25-28.68-86.59-43.31L416.15,275Z" transform="translate(-155.9 -245.93)"/></svg>